<svg id="svg" version="1.1" xmlns="http://www.w3.org/2000/svg" xmlns:xlink="http://www.w3.org/1999/xlink" width="400" height="400" viewBox="0, 0, 400,400"><g id="svgg"><path id="path0" d="M29.003 29.005 C 13.051 44.958,-0.000 58.185,-0.000 58.399 C -0.000 58.613,31.772 90.561,70.605 129.394 L 141.210 200.000 70.605 270.606 C 31.772 309.439,0.000 341.388,0.000 341.603 C 0.000 342.113,57.889 400.000,58.399 400.000 C 58.613 400.000,90.561 368.228,129.394 329.395 L 200.000 258.790 270.606 329.395 C 309.439 368.228,341.388 400.000,341.603 400.000 C 342.113 400.000,400.000 342.111,400.000 341.601 C 400.000 341.387,368.228 309.439,329.395 270.606 L 258.790 200.000 329.395 129.394 C 368.228 90.561,400.000 58.612,400.000 58.397 C 400.000 57.887,342.111 -0.000,341.601 -0.000 C 341.387 -0.000,309.439 31.772,270.606 70.605 L 200.000 141.210 129.394 70.605 C 90.561 31.772,58.612 0.000,58.397 0.000 C 58.182 0.000,44.955 13.052,29.003 29.005 " stroke="none" fill="#000000" fill-rule="evenodd"></path></g></svg>